<?xml version="1.0" encoding="UTF-8"?>
<!DOCTYPE svg PUBLIC "-//W3C//DTD SVG 1.1//EN" "http://www.w3.org/Graphics/SVG/1.1/DTD/svg11.dtd">
<!-- Creator: CorelDRAW X6 -->
<svg xmlns="http://www.w3.org/2000/svg" xml:space="preserve" width="179.193mm" height="179.223mm" version="1.1" style="shape-rendering:geometricPrecision; text-rendering:geometricPrecision; image-rendering:optimizeQuality; fill-rule:evenodd; clip-rule:evenodd"
viewBox="0 0 18385 18388"
 xmlns:xlink="http://www.w3.org/1999/xlink">
 <defs>
  <style type="text/css">
   <![CDATA[
    .fil0 {fill:black}
    .fil1 {fill:black;fill-rule:nonzero}
    .fil2 {fill:#004C86;fill-rule:nonzero}
   ]]>
  </style>
 </defs>
 <g id="Layer_x0020_1">
  <metadata id="CorelCorpID_0Corel-Layer"/>
  <path class="fil0" d="M11445 16729c0,-621 788,-974 1231,-561 534,500 170,1303 -417,1303 -258,0 -383,0 -614,-239 -102,-106 -201,-314 -201,-508l0 4zm864 1523l-227 0c-345,-27 -697,-174 -996,-485 -352,-367 -500,-924 -337,-1455 27,-91 91,-239 136,-326l-5660 0c326,614 258,1311 -220,1796 -405,409 -678,470 -1231,470 -674,0 -1379,-705 -1379,-1379l0 -246c0,-689 591,-1273 1364,-1398 390,-64 7868,-19 8156,-19 19,-224 136,-477 140,-708l-9202 0c-443,0 -466,-318 -580,-659l-1856 -5572c-144,-428 -485,-1072 -125,-1284 106,-64 212,-57 367,-57 4349,38 8845,0 13198,0l977 -4190c57,-189 140,-341 367,-341l2690 0c197,0 352,155 352,352 0,549 -568,424 -1205,424 -508,0 -1015,0 -1523,0 -19,246 -125,546 -174,780 -53,254 -117,508 -174,746 -121,511 -239,1011 -360,1515 -246,1011 -474,2019 -716,3034 -117,500 -224,1008 -352,1523l-977 4156c-34,136 -76,235 -80,383 474,110 1027,720 1027,1311l0 246c0,727 -659,1322 -1402,1379l0 4zm-8292 -780c-606,0 -849,-239 -849,-849 0,-163 144,-345 239,-436 629,-614 1652,288 1080,1008 -87,110 -292,277 -466,277l-4 0zm-2978 -9766l12603 0c0,182 -951,4152 -1034,4485l-261 1118c-34,152 -80,254 -83,409l-9236 0 -1985 -6012 -4 0z"/>
  <path class="fil1" d="M11312 16729c0,-227 91,-424 227,-576 87,-95 193,-167 311,-216 117,-49 242,-80 367,-80 197,0 390,68 549,216 212,197 303,439 303,671 0,114 -23,227 -64,330 -42,102 -102,197 -174,277 -144,155 -345,254 -572,254l0 0c-295,0 -436,0 -705,-277 -64,-68 -129,-167 -174,-280 -42,-102 -64,-212 -64,-318l-4 0zm424 -394c-95,102 -155,239 -155,394 0,72 19,152 45,220 30,80 76,148 117,193 189,197 295,197 515,197l0 0c152,0 280,-64 379,-170 53,-57 95,-121 121,-193 27,-72 45,-152 45,-231 0,-163 -64,-333 -220,-477 -106,-98 -239,-144 -367,-144 -91,0 -178,19 -261,57 -83,38 -159,87 -220,155zm572 2049l-227 0 -11 0c-197,-15 -394,-64 -583,-159 -174,-87 -345,-208 -500,-367 -197,-205 -333,-458 -398,-739 -64,-269 -57,-561 30,-845l0 0c11,-42 34,-98 57,-152l-5247 0c110,277 148,564 114,841 -42,337 -189,655 -447,917 -216,220 -402,349 -610,420 -208,72 -424,87 -716,87 -375,0 -754,-193 -1038,-477 -284,-284 -477,-663 -477,-1038l0 -246c0,-379 159,-727 424,-996 265,-269 633,-466 1053,-530 352,-57 6126,-30 7758,-23 117,0 208,0 303,0 15,-76 34,-152 57,-224 19,-72 38,-144 53,-216l-9050 0c-481,0 -564,-277 -663,-614 -15,-49 -30,-102 -42,-140l-1856 -5572c-23,-64 -53,-152 -87,-239 -170,-447 -371,-966 23,-1201 133,-80 242,-76 405,-76l34 0c2917,27 5898,15 8861,8 1508,-4 3015,-8 4231,-8l955 -4087 4 -8c34,-110 76,-212 148,-292 80,-87 189,-144 345,-144l2690 0c136,0 258,53 345,140l0 0c87,87 140,208 140,345 0,492 -326,572 -777,572 -68,0 -163,-4 -261,-8 -91,-4 -182,-8 -299,-8l-1405 0c-23,133 -61,273 -95,409 -27,95 -49,186 -64,265 -38,189 -87,386 -133,576l-42 178c-68,280 -129,542 -182,761 -45,197 -106,439 -182,754 -155,636 -311,1307 -470,1985 -80,349 -163,701 -246,1049 -53,220 -95,402 -136,587 -72,311 -140,625 -220,936l0 0 -977 4156 0 0c-8,34 -19,76 -30,114 -15,49 -27,95 -34,140 242,87 489,280 678,519 201,258 337,572 337,886l0 246c0,394 -174,754 -447,1023 -280,277 -667,458 -1080,489l-11 0 0 4zm-224 -269l220 0c345,-27 671,-182 905,-413 224,-220 367,-511 367,-833l0 -246c0,-250 -114,-508 -280,-720 -182,-231 -424,-409 -640,-458l-106 -23 4 -110c4,-125 27,-212 53,-307 8,-30 19,-61 27,-102l0 0 977 -4152 0 0c80,-318 148,-625 220,-932 49,-208 95,-417 136,-587 83,-352 163,-701 246,-1049 152,-648 303,-1296 470,-1985 45,-189 110,-447 182,-754 68,-284 125,-530 182,-761 27,-114 15,-57 42,-178 45,-186 91,-375 129,-564 19,-91 45,-186 68,-280 45,-163 91,-337 102,-485l11 -121 121 0 1523 0c91,0 201,4 307,8 83,4 159,4 254,4 295,0 508,-42 508,-303 0,-64 -23,-117 -64,-155l0 0c-38,-38 -95,-64 -155,-64l-2690 0c-72,0 -117,23 -152,57 -38,42 -64,106 -87,182l0 0 -977 4190 -23 102 -106 0c-1633,0 -2981,4 -4337,8 -2962,8 -5947,15 -8864,-8l-34 0c-117,0 -201,-4 -269,38 -197,117 -42,527 91,875 30,83 61,163 91,250l1856 5572c19,61 34,102 45,148 68,231 125,420 409,420l9202 0 136 0 -4 136c-4,140 -42,280 -76,417 -30,106 -57,208 -64,299l-11 121 -121 0c-64,0 -117,0 -420,-4 -1629,-8 -7383,-34 -7717,19 -360,57 -678,224 -902,455 -216,224 -349,504 -349,811l0 246c0,299 159,610 398,849 239,239 549,398 849,398 261,0 458,-15 625,-72 167,-61 322,-167 508,-356 216,-216 337,-481 371,-761 34,-288 -23,-591 -174,-879l-102 -197 224 0 5660 0 224 0 -102 197c-23,42 -45,95 -68,148 -23,57 -45,114 -57,155l0 0c-72,239 -76,481 -23,708 53,231 167,447 330,614 133,136 277,242 424,314 155,76 318,117 481,133l0 -11zm-8069 -511c-341,0 -583,-72 -746,-235 -163,-163 -239,-405 -239,-746 0,-95 34,-186 80,-273 57,-106 136,-201 201,-258 258,-250 568,-288 841,-197 121,42 239,110 333,197 98,87 174,193 227,314l0 0c117,265 106,583 -125,875 -57,72 -159,167 -273,231 -95,57 -197,95 -299,95l0 -4zm-557 -424c110,110 292,155 557,155 49,0 110,-23 163,-57 83,-49 159,-117 197,-170 163,-205 170,-420 91,-599l0 0c-38,-83 -95,-163 -163,-224 -68,-64 -152,-114 -239,-140 -182,-61 -394,-34 -568,136 -45,45 -110,117 -152,197 -27,49 -45,98 -45,144 0,269 49,451 159,557zm-2421 -9607l12603 0 133 0 0 133c0,76 -125,640 -288,1345 -288,1243 -693,2951 -750,3171l0 0 -261 1118 0 0c-11,49 -23,91 -34,133 -23,83 -45,159 -45,250l-4 133 -129 0 -9236 0 -95 0 -30 -91 -1985 -6012 -57 -174 186 0 -8 -4zm12444 265l-12262 0 1898 5747 9016 0c11,-64 27,-121 45,-186 11,-38 23,-80 30,-121l0 0 261 -1118 0 0c53,-216 462,-1921 750,-3171 117,-511 216,-943 258,-1152l4 0z"/>
  <path class="fil2" d="M6702 3716c258,265 599,614 822,826l0 -80c-8,-1064 -27,-3921 27,-4099 30,-98 91,-193 174,-261 80,-64 178,-102 288,-102 496,0 568,314 568,682 0,49 -4,121 -4,189 -4,57 -4,110 -4,182l0 3489c227,-216 572,-572 837,-841 133,-136 246,-250 288,-295 23,-23 45,-45 64,-68 136,-148 307,-333 549,-333 140,0 273,61 367,155l0 0c95,95 155,227 155,367 0,265 -314,553 -527,746 -42,38 -76,68 -106,102l-655 655c-231,231 -398,405 -538,553 -458,481 -689,720 -962,720 -273,0 -504,-242 -966,-724 -144,-152 -314,-330 -534,-549 -45,-45 -106,-102 -178,-174 -386,-364 -1106,-1049 -1106,-1330 0,-140 61,-269 155,-367l0 0 0 0c95,-95 227,-155 367,-155 246,0 424,193 564,345 23,27 45,49 68,72 42,42 155,155 284,288l0 8z"/>
 </g>
</svg>
