<?xml version="1.0" encoding="UTF-8"?>
<!DOCTYPE svg PUBLIC "-//W3C//DTD SVG 1.1//EN" "http://www.w3.org/Graphics/SVG/1.1/DTD/svg11.dtd">
<!-- Creator: CorelDRAW X6 -->
<svg xmlns="http://www.w3.org/2000/svg" xml:space="preserve" width="210mm" height="297mm" version="1.1" style="shape-rendering:geometricPrecision; text-rendering:geometricPrecision; image-rendering:optimizeQuality; fill-rule:evenodd; clip-rule:evenodd"
viewBox="0 0 21000 29700"
 xmlns:xlink="http://www.w3.org/1999/xlink">
 <defs>
  <style type="text/css">
   <![CDATA[
    .fil0 {fill:black}
   ]]>
  </style>
   <clipPath id="id0">
    <rect x="6197" y="10009" width="8606" height="9682"/>
   </clipPath>
 </defs>
 <g id="Layer_x0020_1">
  <metadata id="CorelCorpID_0Corel-Layer"/>
  <g style="clip-path:url(#id0)">
   <image id="img_334028_x0020__x0028_1_x0029_.png" x="6197" y="10009" width="8606" height="9682" xlink:href="Untitled-1_Images\Untitled-1_ImgID1.png"/>
  </g>
  <path class="fil0" d="M-2705 15437l0 -1145c0,-252 245,-503 484,-503 113,0 177,0 283,52 143,72 289,258 289,451l0 1145c0,134 -82,254 -165,338 -251,254 -671,170 -833,-139 -26,-49 -58,-129 -58,-199zm3518 4254l-73 0c-111,-5 -222,-31 -326,-79 -34,-16 -85,-49 -116,-72 -212,-158 -328,-384 -328,-688 0,-261 154,-504 357,-640 356,-237 846,-153 1098,181l90 146c41,67 112,26 180,15 285,-49 583,-140 843,-253 421,-181 803,-428 1125,-750 263,-263 493,-559 672,-887 21,-38 36,-65 56,-102 18,-34 40,-57 49,-99 -63,0 -82,10 -148,10 -249,0 -443,-65 -630,-189l-143 -114c-176,-176 -323,-439 -323,-713l0 -1184c0,-155 51,-307 99,-414 36,-80 90,-170 150,-234 24,-26 32,-39 54,-64 69,-79 201,-161 295,-208 100,-50 254,-105 398,-105 333,0 286,44 464,59 -9,-110 -102,-339 -148,-444 -202,-461 -376,-702 -694,-1082 -102,-123 -234,-231 -355,-336 -1343,-1170 -3412,-1159 -4777,-44 -20,16 -35,27 -54,44 -22,20 -33,26 -54,44 -19,17 -30,32 -49,49 -23,21 -32,23 -55,44 -103,95 -195,201 -286,306l-257 335c-216,319 -407,704 -495,1084 322,-75 530,-124 865,43 137,68 214,135 317,236 219,216 289,498 289,817l0 967c0,255 -62,442 -187,632 -42,62 -68,92 -121,146 -690,689 -1853,222 -1853,-777l0 -957c0,-735 137,-1439 480,-2076l246 -415c73,-110 147,-204 229,-304 81,-99 162,-192 251,-281 91,-91 178,-185 280,-263l145 -122c574,-469 1310,-799 2052,-889l482 -51c361,0 695,29 996,90 148,30 298,63 434,109 196,66 396,136 580,229 486,245 864,527 1244,907l128 138c164,161 339,432 453,622 213,355 356,722 473,1136 71,252 132,629 132,943l0 1253c0,164 -49,300 -111,441 -50,113 -87,293 -134,419 -131,352 -288,694 -510,1000 -95,131 -188,266 -298,383l-340 350c-68,69 -144,124 -218,187 -285,242 -685,473 -1036,612 -132,52 -256,103 -400,143 -143,40 -282,78 -444,109 -322,62 -260,-20 -361,182 -134,267 -403,416 -684,428zm3500 -3770c-177,0 -298,-29 -427,-165 -71,-75 -145,-216 -145,-358l0 -1096c0,-81 24,-157 52,-214 93,-186 283,-308 490,-308 258,0 523,240 523,552l0 1036c0,312 -250,553 -493,553z"/>
 </g>
</svg>
