<?xml version="1.0" encoding="UTF-8"?>
<!DOCTYPE svg PUBLIC "-//W3C//DTD SVG 1.1//EN" "http://www.w3.org/Graphics/SVG/1.1/DTD/svg11.dtd">
<!-- Creator: CorelDRAW X6 -->
<svg xmlns="http://www.w3.org/2000/svg" xml:space="preserve" width="202.352mm" height="227.643mm" version="1.1" style="shape-rendering:geometricPrecision; text-rendering:geometricPrecision; image-rendering:optimizeQuality; fill-rule:evenodd; clip-rule:evenodd"
viewBox="0 0 13521 15211"
 xmlns:xlink="http://www.w3.org/1999/xlink">
 <defs>
  <style type="text/css">
   <![CDATA[
    .fil0 {fill:black}
   ]]>
  </style>
 </defs>
 <g id="Layer_x0020_1">
  <metadata id="CorelCorpID_0Corel-Layer"/>
  <path class="fil0" d="M868 8528l0 -1799c0,-395 385,-791 760,-791 177,0 279,0 445,82 225,112 455,406 455,708l0 1799c0,210 -129,399 -260,531 -394,399 -1054,267 -1309,-219 -40,-77 -91,-203 -91,-313zm5527 6683l-115 0c-174,-7 -348,-48 -512,-124 -53,-24 -133,-76 -182,-113 -333,-248 -516,-603 -516,-1081 0,-410 242,-792 561,-1005 559,-373 1330,-241 1725,285l142 230c64,105 177,41 283,23 448,-77 916,-221 1324,-397 661,-285 1261,-673 1767,-1179 413,-413 774,-878 1056,-1394 33,-60 57,-102 88,-161 28,-54 62,-89 78,-155 -98,0 -129,16 -233,16 -391,0 -696,-102 -989,-298l-224 -179c-276,-277 -508,-689 -508,-1121l0 -1861c0,-243 80,-482 155,-651 56,-126 141,-266 236,-368 38,-41 50,-61 85,-101 109,-124 315,-252 464,-327 157,-79 400,-165 625,-165 523,0 450,70 729,93 -14,-172 -160,-533 -232,-698 -318,-724 -591,-1103 -1090,-1701 -161,-193 -368,-363 -557,-528 -2110,-1839 -5361,-1821 -7505,-69 -32,26 -55,42 -85,70 -35,31 -52,41 -85,70 -30,27 -48,50 -77,78 -35,33 -50,37 -86,69 -161,149 -306,316 -450,480l-404 527c-340,501 -639,1106 -778,1703 505,-118 832,-195 1360,67 216,107 336,212 497,371 344,340 453,782 453,1283l0 1520c0,401 -97,695 -295,992 -65,98 -106,145 -190,229 -1084,1083 -2911,348 -2911,-1221l0 -1504c0,-1154 215,-2261 755,-3261l387 -652c115,-173 231,-320 359,-478 127,-155 254,-301 395,-442 142,-142 280,-290 439,-414l227 -191c902,-736 2058,-1255 3225,-1396l757 -80c567,0 1091,46 1565,141 232,47 469,100 682,171 309,104 621,214 912,360 763,385 1358,828 1955,1425l201 217c257,253 533,679 712,978 334,557 559,1135 743,1785 112,395 208,989 208,1482l0 1969c0,257 -77,471 -175,693 -78,178 -136,460 -210,658 -207,553 -453,1091 -802,1570 -149,205 -296,417 -468,602l-535 551c-107,108 -226,195 -342,294 -448,381 -1077,743 -1628,962 -207,82 -403,162 -628,225 -225,63 -443,122 -697,171 -505,98 -408,-31 -567,286 -211,420 -632,653 -1074,672zm5498 -5923c-278,0 -468,-46 -671,-259 -112,-117 -228,-339 -228,-562l0 -1721c0,-128 38,-246 82,-336 146,-293 445,-483 770,-484 405,-1 822,376 822,867l0 1628c0,491 -393,868 -775,868z"/>
 </g>
</svg>
