<?xml version="1.0" encoding="UTF-8"?>
<!DOCTYPE svg PUBLIC "-//W3C//DTD SVG 1.1//EN" "http://www.w3.org/Graphics/SVG/1.1/DTD/svg11.dtd">
<!-- Creator: CorelDRAW X6 -->
<svg xmlns="http://www.w3.org/2000/svg" xml:space="preserve" width="188.458mm" height="165.953mm" version="1.1" style="shape-rendering:geometricPrecision; text-rendering:geometricPrecision; image-rendering:optimizeQuality; fill-rule:evenodd; clip-rule:evenodd"
viewBox="0 0 19053 16778"
 xmlns:xlink="http://www.w3.org/1999/xlink">
 <defs>
  <style type="text/css">
   <![CDATA[
    .fil0 {fill:black;fill-rule:nonzero}
    .fil1 {fill:#004C86;fill-rule:nonzero}
   ]]>
  </style>
 </defs>
 <g id="Layer_x0020_1">
  <metadata id="CorelCorpID_0Corel-Layer"/>
  <g id="_823163424">
   <path class="fil0" d="M13218 4885c0,-1020 -413,-1944 -1082,-2612 -668,-668 -1592,-1082 -2612,-1082 -1020,0 -1944,413 -2612,1082 -668,668 -1082,1592 -1082,2612 0,1020 413,1944 1082,2612 668,668 1592,1082 2612,1082 1020,0 1944,-413 2612,-1082 668,-668 1082,-1592 1082,-2612zm-239 -3454c884,884 1431,2105 1431,3454 0,1349 -547,2570 -1431,3454 -884,884 -2105,1431 -3454,1431 -1349,0 -2570,-547 -3454,-1431 -884,-884 -1431,-2105 -1431,-3454 0,-1349 547,-2570 1431,-3454 884,-884 2105,-1431 3454,-1431 1349,0 2570,547 3454,1431z"/>
   <path class="fil1" d="M3 16102c1050,-1604 2472,-2888 4110,-3773 1638,-885 3489,-1368 5404,-1368 1922,0 3779,486 5421,1375 1641,888 3063,2182 4114,3793l-996 648c-939,-1442 -2212,-2597 -3682,-3394 -1469,-797 -3134,-1229 -4857,-1229 -1719,0 -3378,432 -4843,1223 -1462,790 -2736,1942 -3678,3378l-996 -652 3 0z"/>
  </g>
 </g>
</svg>
